<?xml version="1.0" encoding="UTF-8"?><svg id="Calque_1" xmlns="http://www.w3.org/2000/svg" viewBox="0 0 59.71 18.67"><defs><style>.cls-1{fill:#723e52;}</style></defs><g><path class="cls-1" d="M0,.77H8.29s2.52,.24,2.76,8.77C11.05,9.54,7.57,1.73,0,.77Z"/><path class="cls-1" d="M4.81,3.89l4.08,14.78h5.53L21.98,.77h-5.29l-4.56,12.13s-1.32-5.29-7.33-9.01Z"/></g><polygon class="cls-1" points="24.06 .77 28.98 .77 25.86 18.67 21.18 18.67 24.06 .77"/><path class="cls-1" d="M43.04,.85s.02,.02,.02,.04c.04,.07,.04,.16,.04,.25,0,1.24-.01,2.47-.02,3.71-1.72-.31-3.48-.62-5.2-.37-.58,.08-1.24,.3-1.44,.86-.15,.42,.03,.91,.34,1.24s.72,.54,1.11,.75c1.33,.73,2.6,1.61,3.62,2.73,.87,.96,1.57,2.18,1.5,3.47-.06,1.13-.71,2.15-1.54,2.92-1.48,1.38-3.53,2.03-5.55,2.18s-4.04-.17-6.04-.51c-.72-.12-.4-1.08-.38-1.6,.03-.8,.02-1.6-.01-2.4,2.16,.43,4.36,.87,6.56,.69,.65-.05,1.44-.28,1.6-.91,.14-.56-.29-1.09-.72-1.48-1.01-.9-2.18-1.6-3.24-2.45s-2.01-1.91-2.36-3.22c-.45-1.69,.23-3.56,1.48-4.77S35.82,.15,37.56,.03s3.49,.21,5.17,.67c.11,.03,.23,.07,.31,.16Z"/><path class="cls-1" d="M55.98,.61h-5.41l-7.81,18.05h5.05l.72-3.04h6.37l.6,3.04h4.2L55.98,.61Zm-5.85,11.63l2.68-6.26,1.39,6.26h-4.07Z"/></svg>